<svg width="34" height="29" viewBox="0 0 34 29" fill="none" xmlns="http://www.w3.org/2000/svg">
<path d="M17 27C10.182 27 2 20.05 2 14.5C2 8.95 10.182 2 17 2C23.818 2 32 8.95 32 14.5C32 20.05 23.818 27 17 27ZM14.5 14.5C14.5 15.16 14.763 15.8 15.232 16.27C15.701 16.74 16.337 17 17 17C17.663 17 18.299 16.74 18.768 16.27C19.237 15.8 19.5 15.16 19.5 14.5C19.5 13.84 19.237 13.2 18.768 12.73C18.299 12.26 17.663 12 17 12C16.337 12 15.701 12.26 15.232 12.73C14.763 13.2 14.5 13.84 14.5 14.5Z" stroke="#F40101" stroke-width="2.5"/>
</svg>
