<svg width="263" height="93" viewBox="0 0 263 93" fill="none" xmlns="http://www.w3.org/2000/svg">
<path d="M43.269 39.72H27.7643V91.8H9.85573V39.72H0V31.08L9.85573 26.28V21.48C9.85573 15.8801 10.7771 11.5601 12.6201 8.52C14.5432 5.4 17.2276 3.19989 20.673 1.92C24.1987 0.640119 28.3251 0 33.0527 0C36.5785 0 39.7433 0.280124 42.5479 0.840009C45.4325 1.3999 47.7563 2.04 49.519 2.76L44.9517 15.84C43.5894 15.4399 42.1073 15.0799 40.5046 14.76C38.9019 14.3599 37.0592 14.16 34.9758 14.16C32.492 14.16 30.6489 14.9201 29.447 16.44C28.3251 17.9599 27.7643 19.8799 27.7643 22.2V26.28H43.269V39.72ZM85.3025 25.08C86.1836 25.08 87.2255 25.1201 88.4274 25.2C89.6294 25.2799 90.5909 25.3999 91.312 25.56L89.9899 42.36C89.4288 42.1999 88.5875 42.0799 87.4659 42C86.424 41.8399 85.5026 41.76 84.7015 41.76C81.6565 41.76 78.7318 42.3199 75.9275 43.44C73.1229 44.4799 70.8393 46.2 69.0766 48.6C67.3939 51 66.5526 54.2801 66.5526 58.44V91.8H48.644V26.28H62.2256L64.8699 37.32H65.7112C67.6343 33.96 70.2785 31.08 73.6439 28.68C77.0092 26.28 80.8952 25.08 85.3025 25.08ZM123.111 25.08C132.166 25.08 139.337 27.6799 144.625 32.88C149.913 37.9999 152.558 45.3199 152.558 54.84V63.48H110.25C110.412 68.52 111.892 72.48 114.697 75.36C117.582 78.24 121.548 79.68 126.596 79.68C130.844 79.68 134.69 79.2799 138.135 78.48C141.579 77.5999 145.147 76.2799 148.832 74.52V88.32C145.628 89.9201 142.221 91.08 138.615 91.8C135.089 92.5999 130.803 93 125.755 93C119.186 93 113.375 91.8 108.327 89.4C103.279 86.9201 99.313 83.2001 96.4284 78.24C93.5438 73.2799 92.1015 67.0399 92.1015 59.52C92.1015 51.84 93.3838 45.48 95.9477 40.44C98.5919 35.3201 102.238 31.4801 106.885 28.92C111.531 26.3599 116.94 25.08 123.111 25.08ZM123.231 37.8C119.786 37.8 116.902 38.9201 114.577 41.16C112.335 43.3999 111.012 46.8799 110.611 51.6H135.731C135.652 47.5999 134.608 44.3201 132.606 41.76C130.604 39.12 127.479 37.8 123.231 37.8ZM208.066 72.36C208.066 79.0001 205.699 84.12 200.974 87.72C196.325 91.2401 189.353 93 180.061 93C175.494 93 171.565 92.6801 168.282 92.04C164.996 91.4801 161.709 90.5201 158.426 89.16V74.4C161.95 76.0001 165.758 77.3201 169.845 78.36C173.931 79.3999 177.537 79.92 180.662 79.92C184.185 79.92 186.671 79.3999 188.114 78.36C189.635 77.3201 190.397 75.96 190.397 74.28C190.397 73.1599 190.075 72.1601 189.436 71.28C188.873 70.3999 187.592 69.4001 185.59 68.28C183.584 67.1599 180.459 65.7199 176.215 63.96C172.128 62.2001 168.763 60.48 166.119 58.8C163.474 57.0401 161.51 54.96 160.229 52.56C158.945 50.0801 158.306 46.9999 158.306 43.32C158.306 37.2401 160.669 32.6801 165.398 29.64C170.123 26.5999 176.414 25.08 184.268 25.08C188.354 25.08 192.238 25.4801 195.926 26.28C199.611 27.0799 203.416 28.3999 207.344 30.24L201.936 43.08C198.728 41.7199 195.686 40.6001 192.801 39.72C189.917 38.76 186.991 38.28 184.027 38.28C178.739 38.28 176.095 39.72 176.095 42.6C176.095 43.6399 176.414 44.5999 177.056 45.48C177.777 46.2799 179.099 47.16 181.022 48.12C183.024 49.08 185.95 50.3599 189.796 51.96C193.56 53.4799 196.805 55.08 199.532 56.76C202.255 58.3601 204.34 60.4001 205.782 62.88C207.303 65.28 208.066 68.4401 208.066 72.36ZM263 72.36C263 79.0001 260.637 84.12 255.909 87.72C251.262 91.2401 244.291 93 234.995 93C230.428 93 226.503 92.6801 223.217 92.04C219.934 91.4801 216.647 90.5201 213.361 89.16V74.4C216.888 76.0001 220.693 77.3201 224.779 78.36C228.866 79.3999 232.471 79.92 235.596 79.92C239.123 79.92 241.606 79.3999 243.048 78.36C244.573 77.3201 245.332 75.96 245.332 74.28C245.332 73.1599 245.012 72.1601 244.37 71.28C243.811 70.3999 242.53 69.4001 240.524 68.28C238.522 67.1599 235.397 65.7199 231.149 63.96C227.063 62.2001 223.697 60.48 221.053 58.8C218.409 57.0401 216.448 54.96 215.164 52.56C213.883 50.0801 213.241 46.9999 213.241 43.32C213.241 37.2401 215.607 32.6801 220.332 29.64C225.061 26.5999 231.352 25.08 239.202 25.08C243.289 25.08 247.176 25.4801 250.861 26.28C254.549 27.0799 258.354 28.3999 262.279 30.24L256.87 43.08C253.666 41.7199 250.62 40.6001 247.736 39.72C244.851 38.76 241.929 38.28 238.962 38.28C233.673 38.28 231.029 39.72 231.029 42.6C231.029 43.6399 231.352 44.5999 231.991 45.48C232.712 46.2799 234.034 47.16 235.957 48.12C237.962 49.08 240.885 50.3599 244.731 51.96C248.498 53.4799 251.743 55.08 254.466 56.76C257.193 58.3601 259.274 60.4001 260.716 62.88C262.241 65.28 263 68.4401 263 72.36Z" fill="#F40101"/>
</svg>
