<svg width="28" height="28" viewBox="0 0 28 28" fill="none" xmlns="http://www.w3.org/2000/svg">
<path d="M13 9C13 8.73 13.105 8.48004 13.293 8.29004C13.48 8.11004 13.735 8 14 8C14.265 8 14.52 8.11004 14.707 8.29004C14.895 8.48004 15 8.73 15 9V13H19C19.265 13 19.52 13.11 19.707 13.29C19.895 13.48 20 13.73 20 14C20 14.27 19.895 14.52 19.707 14.71C19.52 14.89 19.265 15 19 15H15V19C15 19.27 14.895 19.52 14.707 19.71C14.52 19.89 14.265 20 14 20C13.735 20 13.48 19.89 13.293 19.71C13.105 19.52 13 19.27 13 19V15H9C8.735 15 8.48 14.89 8.293 14.71C8.105 14.52 8 14.27 8 14C8 13.73 8.105 13.48 8.293 13.29C8.48 13.11 8.735 13 9 13H13V9ZM28 14C28 21.73 21.732 28 14 28C6.268 28 0 21.73 0 14C0 6.27 6.268 0 14 0C21.732 0 28 6.27 28 14ZM26 14C26 7.37 20.627 2 14 2C7.373 2 2 7.37 2 14C2 20.63 7.373 26 14 26C20.627 26 26 20.63 26 14Z" fill="#F40101"/>
</svg>
